<svg id="Layer_1" enable-background="new 0 0 128 128" height="512" viewBox="0 0 128 128" width="512" xmlns="http://www.w3.org/2000/svg"><g><g><path d="m116.865 127h-105.73c-5.26 0-9.326-4.615-8.664-9.833l1.656-13.053c.048-.612.12-1.212.192-1.812 2.016-16.213 14.533-29.078 30.507-32.535 3.552-.768 7.741-1.44 12.529-1.824 1.5-.12 2.76-1.224 3.084-2.7l1.872-8.485h23.27l1.98 8.485c.324 1.476 1.584 2.58 3.084 2.7 4.788.384 8.977 1.056 12.529 1.824 15.973 3.456 28.49 16.321 30.507 32.535.084.6.144 1.2.192 1.812l1.656 13.053c.663 5.218-3.404 9.833-8.664 9.833z" fill="#b2d1fb"/></g><g><path d="m50.1 66.15.27 3.55c.07.84-.15 1.71-.7 2.35-.58.66-1.4 1.1-2.32 1.17-4.78.39-8.97 1.06-12.52 1.83-15.98 3.45-28.49 16.32-30.51 32.53-.07.6-.15 1.2-.19 1.81l-1.42 11.18c-.3-1.07-.39-2.22-.24-3.4l1.66-13.06c.04-.61.12-1.21.19-1.81 2.02-16.21 14.53-29.08 30.51-32.53 3.55-.77 7.74-1.44 12.52-1.83 1.17-.09 2.2-.79 2.75-1.79z" fill="#c6e5fc"/></g><g><path d="m125.29 120.57-1.42-11.18c-.05-.61-.11-1.21-.19-1.81-2.02-16.21-14.53-29.08-30.51-32.53-3.55-.77-7.74-1.44-12.52-1.83-.15-.01-.3-.03-.45-.06-1.71-.37-2.73-2.18-2.4-3.9l.49-2.55c.58.7 1.42 1.15 2.36 1.23 4.78.39 8.97 1.06 12.52 1.83 15.98 3.45 28.49 16.32 30.51 32.53.08.6.14 1.2.19 1.81l1.66 13.06c.15 1.18.06 2.33-.24 3.4z" fill="#c6e5fc"/></g><g><path d="m125.568 118.931c-.334 4.459-4.047 8.064-8.703 8.064h-105.73c-4.656 0-8.369-3.605-8.703-8.064 0-.147.02-.305.039-.452l.206-1.65c.963 3.723 4.342 6.542 8.457 6.542h105.731c4.116 0 7.495-2.819 8.457-6.542l.206 1.65c.021.147.04.304.04.452z" fill="#9aaaeb"/></g><g><path d="m63.823 101.495c-.01-.462-.01-.904-.01-1.326 0-12.455-18.319-17.062-18.319-17.062 1.719-.079 3.615-.128 5.727-.128 0 0 12.593-.363 12.593 9.715-.001 1.926.029 5.589.009 8.801z" fill="#c6e5fc"/></g><g><path d="m63.823 101.495c.01-.462.023-.904.023-1.326 0-12.455 18.319-17.062 18.319-17.062-1.719-.079-3.615-.128-5.727-.128 0 0-12.593-.363-12.593 9.715.002 1.926-.041 5.589-.022 8.801z" fill="#c6e5fc"/></g><g><path d="m76.878 62.313c-3.831 2.053-8.222 3.222-12.877 3.222-4.676 0-9.076-1.169-12.917-3.241l1.228-5.54h23.27z" fill="#9aaaeb"/></g><g><path d="m116.865 128h-105.73c-2.794 0-5.456-1.202-7.303-3.299-1.847-2.096-2.705-4.888-2.353-7.66l1.656-13.053c.043-.567.115-1.169.187-1.772 2.04-16.399 14.613-29.817 31.292-33.427 4.039-.873 8.298-1.493 12.66-1.843 1.059-.084 1.958-.874 2.188-1.918l1.872-8.485c.101-.458.507-.785.977-.785h23.27c.465 0 .868.32.974.773l1.98 8.484c.232 1.057 1.132 1.846 2.19 1.93 4.362.351 8.622.971 12.661 1.844 3.351.725 6.615 1.875 9.703 3.419.161.085 3.381 1.812 5.008 2.968 1.148.796 2.303 1.693 3.42 2.66.417.362.463.993.102 1.411-.362.418-.994.463-1.411.102-1.064-.921-2.161-1.774-3.261-2.536-1.533-1.089-4.746-2.812-4.778-2.829-2.914-1.456-6.02-2.551-9.207-3.24-3.952-.854-8.124-1.462-12.397-1.805-1.927-.153-3.564-1.585-3.981-3.482l-1.797-7.699h-21.673l-1.699 7.7c-.417 1.896-2.054 3.328-3.981 3.482-4.273.343-8.445.95-12.397 1.805-15.85 3.43-27.795 16.161-29.726 31.681-.072.604-.141 1.18-.187 1.767l-1.661 13.101c-.28 2.202.402 4.42 1.87 6.086 1.467 1.665 3.582 2.62 5.802 2.62h105.73c2.22 0 4.335-.955 5.802-2.621 1.468-1.666 2.149-3.884 1.87-6.086l-1.656-13.053c-.051-.64-.109-1.22-.19-1.8-.73-5.867-2.945-11.537-6.406-16.412-.32-.451-.214-1.075.236-1.395.451-.319 1.075-.213 1.395.236 3.652 5.144 5.989 11.129 6.758 17.308.085.605.147 1.225.197 1.858l1.651 13.005c.352 2.772-.506 5.564-2.353 7.66-1.848 2.098-4.51 3.3-7.304 3.3z" fill="#785ae6"/></g><g><path d="m63.823 106.193c-.552 0-1-.448-1-1l-.011-12.5c0-2.311-.737-4.199-2.192-5.613-3.329-3.235-9.318-3.105-9.37-3.101-16.798 0-20.315 2.803-20.346 2.832-.407.374-1.039.346-1.413-.06s-.347-1.039.06-1.413c.374-.344 4.158-3.358 21.671-3.358.255-.006 6.863-.152 10.792 3.667 1.857 1.804 2.798 4.175 2.798 7.047l.011 12.5c0 .551-.448.999-1 .999z" fill="#785ae6"/></g><g><path d="m63.823 106.215c-.552 0-1-.448-1-1 0-2.001.006-4.679.013-7.153.005-2.125.01-4.1.01-5.369 0-2.872.941-5.243 2.798-7.047 3.927-3.817 10.542-3.676 10.821-3.666h.016c3.675 0 7.037.138 9.963.409.55.051.955.538.903 1.088-.051.549-.538.957-1.088.903-2.87-.266-6.175-.4-9.823-.4-.092.003-6.091-.121-9.404 3.106-1.451 1.413-2.186 3.299-2.186 5.607 0 1.27-.005 3.247-.01 5.374-.006 2.473-.013 5.148-.013 7.148 0 .553-.448 1-1 1z" fill="#785ae6"/></g><g><path d="m97.43 87.075c-.233 0-.468-.082-.657-.246-.061-.047-1.23-.926-5.061-1.688-.542-.108-.893-.635-.786-1.176.108-.541.631-.89 1.176-.786 4.441.885 5.781 1.955 6.004 2.16.407.374.433 1.006.06 1.413-.197.214-.466.323-.736.323z" fill="#785ae6"/></g><g><path d="m94.038 122.85c-.275.187-.56.354-.855.521-2.033 1.139-4.351 1.68-6.679 1.758l-3.664.118c-2.057.063-4.054-.312-5.883-1.068-2.516-1.04-5.364-.82-7.591.746-1.09.767-2.218 1.511-3.234 2.07h-16.355c5.206 0 10.117-1.748 14.135-3.86 6.011-3.124 10.019-7.033 10.019-7.033l.766 1.139c1.788 2.632 4.803 4.175 7.986 4.076l3.939-.128c2.515-.079 4.754-1.139 6.385-2.819 1.621-1.67 2.613-3.958 2.613-6.463 0-.403-.029-.796-.079-1.189-.432-3.369-2.662-6.208-5.756-7.436 1.69.638 3.536 1.64 5.314 3.232 5.343 4.765 4.94 12.427-1.061 16.336z" fill="#9aaaeb"/></g><g><path d="m49.777 127.995h-24.753c-.552 0-1-.448-1-1s.448-1 1-1h24.753c4.342 0 8.941-1.26 13.669-3.746 5.817-3.022 9.747-6.826 9.786-6.864.212-.207.508-.308.801-.279.295.03.562.19.728.437l.766 1.14c1.604 2.363 4.264 3.735 7.125 3.635l3.938-.127c2.167-.068 4.19-.961 5.699-2.516 1.503-1.548 2.331-3.596 2.331-5.767 0-.336-.023-.685-.071-1.064-.479-3.743-3.427-6.691-7.169-7.167l-3.851-.491c-.806-.103-1.637-.081-2.474.062l-52.863 9.203c-.393.069-.808-.112-1.022-.45-.183-.29-.21-.653-.063-.963 1.989-4.195.772-12.581.759-12.666-.081-.546.296-1.055.842-1.136.539-.082 1.055.295 1.136.842.048.328 1.05 7.245-.305 12.106l51.176-8.908c1.034-.178 2.064-.204 3.067-.076l3.851.491c4.646.591 8.305 4.251 8.9 8.9.059.466.087.896.087 1.316 0 2.693-1.028 5.236-2.896 7.16-1.873 1.929-4.384 3.038-7.071 3.122l-3.938.127c-3.534.113-6.851-1.577-8.845-4.514l-.122-.181c-1.516 1.331-4.882 4.065-9.375 6.399-5.014 2.638-9.926 3.975-14.596 3.975z" fill="#785ae6"/></g><g><path d="m102.81 127.995h-24.764c-4.67 0-9.582-1.337-14.6-3.975-.489-.257-.677-.862-.42-1.351.258-.488.862-.678 1.351-.42 4.728 2.485 9.327 3.746 13.669 3.746h24.763c.552 0 1 .448 1 1s-.447 1-.999 1z" fill="#785ae6"/></g><g><path d="m32.283 111.719c-.255 0-.503-.098-.691-.277-.229-.22-.341-.535-.301-.85.4-3.13 2.27-5.957 5-7.562.477-.277 1.089-.121 1.369.355s.121 1.089-.355 1.369c-1.794 1.055-3.127 2.763-3.733 4.725l24.443-4.263-11.249-1.97c-.834-.144-1.664-.165-2.46-.062l-2.635.336c-.545.067-1.048-.317-1.119-.866-.07-.548.318-1.048.866-1.119l2.633-.336c.994-.127 2.022-.102 3.056.076l16.888 2.957c.479.083.828.5.828.985s-.35.901-.828.985l-31.541 5.5c-.057.012-.114.017-.171.017z" fill="#785ae6"/></g><g><path d="m99.823 112.465c-.058 0-.135-.005-.192-.015l-4.263-.747c-.544-.095-.908-.613-.813-1.157s.615-.91 1.157-.813l2.579.452c-1.363-4.862-.361-11.78-.313-12.108.082-.546.592-.923 1.136-.842.546.081.923.59.842 1.136-.013.084-1.226 8.476.768 12.664.147.31.126.673-.057.963-.182.292-.5.467-.844.467z" fill="#785ae6"/></g><g><path d="m64 60.548c-13.257 0-24.003-10.746-24.003-24.003v-9.578c0-13.256 10.747-24.002 24.003-24.002 13.256 0 24.003 10.746 24.003 24.003v9.578c0 13.256-10.747 24.002-24.003 24.002z" fill="#b2d1fb"/></g><g><path d="m64 61.548c-7.659 0-14.792-3.445-19.571-9.452-.344-.432-.272-1.061.16-1.405.432-.343 1.061-.272 1.405.16 4.397 5.527 10.96 8.697 18.006 8.697 12.684 0 23.003-10.319 23.003-23.003v-9.578c0-12.684-10.319-23.003-23.003-23.003s-23.003 10.319-23.003 23.003v9.578c0 2.978.566 5.884 1.683 8.638.208.512-.039 1.095-.551 1.303-.512.207-1.095-.04-1.303-.551-1.214-2.994-1.83-6.153-1.83-9.39v-9.578c.001-13.786 11.217-25.003 25.004-25.003s25.003 11.216 25.003 25.003v9.578c0 13.787-11.216 25.003-25.003 25.003z" fill="#785ae6"/></g><g><path d="m64.045 22.433c-2.398 0-4.303-2.161-4.303-4.764v-4.167c0-2.607 1.944-4.942 4.342-4.942 2.528 0 4.342 2.262 4.342 4.708v4.401c-.001 2.603-1.983 4.764-4.381 4.764z" fill="#f0f0e7"/></g><g><path d="m68.43 13.268v3.33c0-1.218-.452-2.397-1.228-3.271-.766-.874-1.856-1.434-3.124-1.434-2.397 0-4.342 2.338-4.342 4.941v-3.33c0-2.613 1.945-4.941 4.342-4.941 1.267 0 2.357.57 3.124 1.434.776.875 1.228 2.044 1.228 3.271z" fill="#f7f8f4"/></g><g><path d="m64.045 23.433c-2.924 0-5.303-2.586-5.303-5.764v-4.167c0-3.221 2.446-5.942 5.342-5.942 2.945 0 5.342 2.561 5.342 5.708v4.4c-.001 3.179-2.414 5.765-5.381 5.765zm.038-13.873c-1.78 0-3.342 1.842-3.342 3.942v4.167c0 2.076 1.482 3.764 3.303 3.764 1.833 0 3.38-1.724 3.38-3.764v-4.4c.001-1.784-1.277-3.709-3.341-3.709z" fill="#785ae6"/></g><g><path d="m90.314 24.722v3.821c0 1.473-1.177 2.613-2.525 2.436-5.929-.747-20.132-3.271-23.743-8.546-3.603 5.275-17.814 7.799-23.743 8.546-1.34.177-2.516-.963-2.516-2.436v-3.821c0-1.257.878-2.338 2.037-2.436 3.8-.305 7.572-1.392 11.196-2.623 2.948-1.002 5.906-2.115 8.728-3.486v1.493c0 2.603 1.901 4.764 4.3 4.764s4.381-2.161 4.381-4.764v-1.454c2.786 1.516 5.94 2.536 8.908 3.532 3.542 1.188 7.223 2.241 10.934 2.539 1.156.097 2.043 1.177 2.043 2.435z" fill="#d87e9f"/></g><g><path d="m59.747 17.669c0 .609.108 1.189.295 1.719-2.849 1.247-6.63 2.701-9.027 3.517-3.625 1.228-7.396 2.318-11.198 2.623-1.149.098-2.033 1.179-2.033 2.436v-3.241c0-1.257.884-2.338 2.033-2.436 3.801-.305 7.573-1.395 11.198-2.623 2.947-1.002 5.913-2.112 8.732-3.487z" fill="#e890b4"/></g><g><path d="m90.315 24.722v3.241c0-1.257-.884-2.338-2.043-2.436-3.713-.295-7.396-1.346-10.942-2.534-2.701-.913-6.503-2.122-9.253-3.467.226-.57.354-1.198.354-1.856v-1.454c2.78 1.513 5.933 2.534 8.899 3.536 3.546 1.189 7.229 2.24 10.942 2.534 1.159.098 2.043 1.178 2.043 2.436z" fill="#e890b4"/></g><g><path d="m92.595 15.881v4.076c0 1.346-1.005 2.446-2.254 2.446h-.036v-.029c-1.122 0-2.308-.098-3.521-.265-3.492-.489-6.926-1.481-10.274-2.643-2.691-.934-5.549-1.871-8.083-3.25v-2.947c0-1.306-.489-2.475-1.276-3.33-.755-.81-1.785-1.331-2.922-1.372-2.464-.09-4.483 2.261-4.483 4.936v2.674c-3.977 1.925-12.208 5.103-18.439 5.933-1.214.162-2.399.265-3.521.265v.029c-1.26 0-2.29-1.118-2.29-2.485v-4.037c0-1.267.887-2.338 2.055-2.446 6.572-.56 15.298-3.526 19.589-5.108 1.801-.668 3.693-1.002 5.603-1.002h2.616c1.901 0 3.793.334 5.603 1.002 4.282 1.581 13.008 4.548 19.589 5.108 1.157.108 2.044 1.178 2.044 2.445z" fill="#d87e9f"/></g><g><path d="m92.594 15.881v3.241c0-1.267-.884-2.338-2.043-2.446-6.581-.56-15.304-3.526-19.586-5.108-1.051-.383-2.132-.658-3.222-.825-.167-.295-.363-.56-.589-.805-.756-.805-1.788-1.336-2.927-1.375-1.532-.059-2.888.825-3.693 2.151-1.149.157-2.289.442-3.399.855-4.283 1.581-13.015 4.548-19.586 5.108-1.169.108-2.053 1.179-2.053 2.446v-3.241c0-1.267.884-2.338 2.053-2.446 6.571-.56 15.304-3.526 19.586-5.108 1.807-.668 3.693-1.002 5.609-1.002h2.613c1.906 0 3.792.334 5.609 1.002 4.283 1.581 13.005 4.548 19.586 5.108 1.158.108 2.042 1.178 2.042 2.445z" fill="#e890b4"/></g><g><path d="m40.019 31.998c-.746 0-1.464-.272-2.052-.788-.751-.658-1.182-1.63-1.182-2.667v-3.821c0-1.785 1.297-3.292 2.953-3.433 3.905-.313 7.73-1.477 10.958-2.574 3.484-1.184 6.22-2.276 8.612-3.439.31-.15.675-.13.967.052.292.183.47.503.47.848v1.493c0 2.076 1.48 3.764 3.3 3.764 1.833 0 3.381-1.724 3.381-3.764v-1.454c0-.353.186-.679.489-.86.304-.18.679-.187.989-.019 2.547 1.386 5.435 2.353 8.229 3.288l.519.174c3.162 1.06 6.904 2.185 10.697 2.49 1.665.141 2.966 1.648 2.966 3.433v3.821c0 1.036-.43 2.007-1.179 2.664-.696.611-1.578.88-2.477.764-4.42-.556-18.559-2.713-23.612-7.966-5.047 5.252-19.193 7.41-23.621 7.967-.136.018-.272.027-.407.027zm18.727-14.251c-2.119.955-4.515 1.879-7.406 2.862-3.344 1.136-7.318 2.343-11.438 2.673-.625.053-1.117.686-1.117 1.439v3.821c0 .461.182.885.5 1.163.255.223.572.32.886.282 7.981-1.004 17.998-3.379 21.984-6.933-1.971-.821-3.38-2.886-3.409-5.307zm7.2 5.315c3.998 3.551 14.002 5.922 21.967 6.925.327.043.646-.058.902-.283.317-.278.499-.701.499-1.161v-3.821c0-.741-.507-1.387-1.13-1.439-4.003-.322-7.892-1.488-11.168-2.587l-.519-.174c-2.36-.79-4.786-1.603-7.074-2.681-.065 2.387-1.493 4.415-3.477 5.221z" fill="#785ae6"/></g><g><path d="m90.341 23.403c-.085 0-.168-.011-.248-.03-1.048-.011-2.207-.103-3.446-.273-3.108-.435-6.433-1.29-10.466-2.689l-.723-.25c-2.521-.871-5.129-1.771-7.511-3.067-.322-.175-.522-.512-.522-.878v-2.947c0-1.002-.359-1.944-1.012-2.652-.602-.646-1.393-1.021-2.223-1.051-.779-.037-1.559.289-2.186.893-.789.761-1.26 1.899-1.26 3.044v2.673c0 .383-.219.733-.564.9-4.042 1.957-12.369 5.175-18.743 6.024-1.281.171-2.401.26-3.414.272-.077.02-.157.031-.24.031-1.814 0-3.29-1.563-3.29-3.485v-4.037c0-1.806 1.273-3.286 2.963-3.441 6.377-.543 14.851-3.397 19.335-5.051 1.902-.706 3.905-1.063 5.949-1.063h2.616c2.034 0 4.036.358 5.949 1.064 4.474 1.652 12.933 4.505 19.328 5.049 1.664.155 2.96 1.667 2.96 3.442v4.076c.002 1.9-1.458 3.446-3.252 3.446zm-20.915-7.791c2.103 1.076 4.43 1.879 6.686 2.658l.725.251c3.907 1.356 7.112 2.181 10.085 2.598 1.231.169 2.37.255 3.383.255.061 0 .121.005.179.016.639-.096 1.111-.702 1.111-1.433v-4.076c0-.754-.5-1.391-1.138-1.45-6.622-.563-15.274-3.478-19.843-5.166-1.214-.448-2.47-.737-3.747-.865.365.238.705.525 1.014.856.998 1.082 1.545 2.505 1.545 4.012zm-8.016-7.229c-1.343.118-2.658.413-3.924.882-4.581 1.688-13.248 4.604-19.852 5.167-.636.059-1.14.695-1.14 1.449v4.037c0 .738.497 1.371 1.119 1.471.056-.01.113-.016.171-.016.985 0 2.094-.084 3.39-.256 5.858-.781 13.475-3.661 17.571-5.574v-2.042c0-1.702.682-3.336 1.872-4.483.249-.239.514-.452.793-.635z" fill="#785ae6"/></g><g><path d="m64.054 1c-.003 0-.005 0-.007 0s-.005 0-.007 0c-9.243.003-16.004 2.644-19.987 4.804-2.567 1.392-4.185 4.233-4.185 7.347 6.175-.936 13.45-3.418 17.256-4.821 1.809-.667 3.7-1.004 5.61-1.004h2.626c1.91 0 3.801.337 5.61 1.004 3.806 1.404 11.082 3.886 17.256 4.821 0-3.114-1.618-5.955-4.185-7.347-3.984-2.16-10.744-4.801-19.987-4.804z" fill="#e890b4"/></g><g><path d="m88.226 14.15c-.05 0-.1-.004-.15-.011-6.265-.949-13.624-3.459-17.453-4.871-1.695-.625-3.466-.942-5.264-.942h-2.626c-1.798 0-3.569.317-5.264.942-3.829 1.412-11.188 3.922-17.453 4.871-.289.043-.581-.041-.802-.23-.221-.19-.348-.467-.348-.758 0-3.499 1.804-6.651 4.708-8.226 4.138-2.243 11.041-4.917 20.441-4.925h.031c4.78.002 9.383.696 13.689 2.063.526.167.817.729.65 1.256s-.732.815-1.256.65c-4.109-1.305-8.509-1.967-13.076-1.969-.01 0-.02 0-.03 0-8.989.008-15.561 2.55-19.495 4.683-1.927 1.045-3.232 3.003-3.573 5.273 5.803-1.042 12.316-3.272 15.821-4.565 1.917-.707 3.921-1.065 5.957-1.065h2.626c2.035 0 4.039.358 5.957 1.065 3.505 1.293 10.018 3.522 15.821 4.565-.341-2.27-1.646-4.228-3.573-5.273l-.47-.247c-.489-.256-.678-.861-.421-1.35.256-.488.859-.677 1.35-.421l.495.26c2.904 1.575 4.708 4.727 4.708 8.226 0 .292-.127.568-.348.758-.183.156-.414.241-.652.241z" fill="#785ae6"/></g><g><path d="m63.98 48.64c-5.667-.112-9.902-2.456-9.902-2.456s2.304 7.214 9.902 7.234c7.598-.02 9.902-7.234 9.902-7.234s-4.234 2.344-9.902 2.456z" fill="#8a7cce"/></g><g><path d="m63.983 54.418c-8.237-.022-10.832-7.851-10.857-7.93-.125-.39.002-.816.318-1.076.317-.26.759-.301 1.118-.104.041.022 4.096 2.221 9.419 2.331 5.323-.11 9.378-2.309 9.419-2.331.358-.196.801-.156 1.118.104.316.26.442.687.318 1.076-.026.079-2.622 7.908-10.853 7.93zm-7.778-6.23c1.258 1.879 3.651 4.218 7.778 4.229 4.123-.011 6.515-2.35 7.772-4.229-1.861.666-4.586 1.389-7.756 1.451-.013 0-.026 0-.039 0-3.168-.062-5.894-.785-7.755-1.451z" fill="#785ae6"/></g><g><path d="m76.69 34.61s-1.49 4.09-4.55 4.09c-2.52 0-3.64-2.55-3.64-2.55s3.23-2.66 8.19-1.54z" fill="#f0f0e7"/></g><g><path d="m59.46 36.15s-1.12 2.55-3.64 2.55c-3.06 0-4.55-4.09-4.55-4.09 4.96-1.12 8.19 1.54 8.19 1.54z" fill="#f0f0e7"/></g><g><path d="m72.143 39.696c-3.133 0-4.503-3.01-4.56-3.138-.182-.41-.068-.891.278-1.177.225-.186 5.59-4.489 13.163-.093.478.277.64.889.363 1.367s-.888.641-1.367.363c-.969-.563-1.893-.958-2.763-1.225-.69 1.365-2.343 3.903-5.114 3.903zm-2.29-3.243c.433.559 1.189 1.244 2.29 1.244 1.439 0 2.482-1.318 3.066-2.321-2.518-.253-4.391.531-5.356 1.077z" fill="#785ae6"/></g><g><path d="m55.818 39.696c-2.771 0-4.425-2.538-5.114-3.904-.869.267-1.793.663-2.762 1.225-.479.277-1.09.115-1.367-.363s-.115-1.09.363-1.367c7.571-4.396 12.937-.092 13.163.093.346.286.46.767.278 1.177-.057.129-1.427 3.139-4.561 3.139zm-3.066-4.321c.584 1.002 1.626 2.321 3.066 2.321 1.101 0 1.857-.686 2.29-1.244-.963-.544-2.842-1.328-5.356-1.077z" fill="#785ae6"/></g><g><g><path d="m14.247 54.076 3.674 1.443c1.322.516 2.362 1.556 2.878 2.878l1.443 3.674 1.443-3.674c.516-1.322 1.556-2.362 2.868-2.878l3.674-1.443z" fill="#fbe892"/></g><g><path d="m26.554 52.633c-1.312-.516-2.353-1.556-2.868-2.868l-1.443-3.674-1.443 3.674c-.516 1.312-1.556 2.353-2.878 2.868l-3.674 1.443h15.982z" fill="#fefaa3"/></g></g><g><path d="m22.237 63.068c-.411 0-.78-.252-.931-.634l-1.442-3.673c-.414-1.054-1.256-1.896-2.311-2.311l-3.672-1.442c-.383-.15-.634-.52-.634-.931s.251-.78.634-.931l3.672-1.442c1.054-.414 1.896-1.256 2.311-2.311l1.442-3.672c.15-.383.52-.634.931-.634s.78.251.931.634l1.442 3.672c.414 1.054 1.256 1.896 2.311 2.311l3.673 1.442c.382.15.634.52.634.931s-.252.78-.634.931l-3.673 1.442c-1.054.414-1.896 1.256-2.311 2.311l-1.442 3.673c-.15.382-.52.634-.931.634zm-5.255-8.99 1.303.512c1.57.617 2.824 1.871 3.44 3.44l.512 1.303.512-1.303c.617-1.57 1.871-2.824 3.44-3.44l1.303-.512-1.303-.512c-1.57-.617-2.824-1.871-3.44-3.44l-.512-1.303-.512 1.303c-.617 1.57-1.871 2.824-3.44 3.44z" fill="#785ae6"/></g><g><g><path d="m97.549 39.461 4.696 1.845c1.689.659 3.019 1.989 3.678 3.678l1.845 4.696 1.845-4.696c.659-1.689 1.989-3.019 3.666-3.678l4.696-1.845z" fill="#fbe892"/></g><g><path d="m113.278 37.616c-1.677-.659-3.007-1.989-3.666-3.666l-1.845-4.696-1.845 4.696c-.659 1.677-1.989 3.007-3.678 3.666l-4.696 1.845h20.425z" fill="#fefaa3"/></g></g><g><path d="m107.762 50.675c-.411 0-.78-.252-.931-.634l-1.843-4.694c-.558-1.419-1.691-2.553-3.11-3.11l-4.694-1.844c-.383-.15-.634-.52-.634-.931s.252-.78.634-.931l4.693-1.843c1.419-.558 2.553-1.691 3.11-3.11l1.843-4.693c.15-.382.52-.634.931-.634s.78.251.931.634l1.844 4.693c.557 1.419 1.691 2.553 3.11 3.11l4.694 1.843c.382.15.634.52.634.931s-.251.78-.634.931l-4.694 1.844c-1.419.557-2.552 1.69-3.109 3.109l-1.844 4.694c-.151.383-.52.635-.931.635zm-7.477-11.213 2.324.913c1.935.759 3.48 2.305 4.24 4.24l.913 2.324.913-2.324c.76-1.935 2.305-3.48 4.24-4.24l2.324-.913-2.324-.913c-1.935-.76-3.48-2.306-4.24-4.241l-.913-2.323-.913 2.324c-.76 1.935-2.306 3.48-4.24 4.24zm12.995 1.844h.01z" fill="#785ae6"/></g></g></svg>